<svg width="134" height="107" viewBox="0 0 134 107" fill="none" xmlns="http://www.w3.org/2000/svg">
<path d="M122.909 0H17.1198C7.67639 0 0 7.67639 0 17.1198V89.4227C0 98.8661 7.67639 106.543 17.1198 106.543H122.88C132.324 106.543 140 98.8661 140 89.4227V17.1488C140.029 7.70536 132.353 0 122.909 0ZM132.208 89.4227C132.208 94.55 128.036 98.7213 122.909 98.7213H17.1198C11.9926 98.7213 7.82123 94.55 7.82123 89.4227V17.1488C7.82123 12.0215 11.9926 7.8502 17.1198 7.8502H122.88C128.007 7.8502 132.179 12.0215 132.179 17.1488V89.4227H132.208Z" fill="white" fill-opacity="0.4"/>
<path d="M88.293 52.3733L122.533 21.6677C124.126 20.2193 124.271 17.7571 122.822 16.1349C121.374 14.5417 118.912 14.3968 117.289 15.8452L70.0724 58.2247L60.8608 49.9979C60.8318 49.969 60.8028 49.94 60.8028 49.911C60.6 49.7083 60.3973 49.5344 60.1655 49.3606L22.6816 15.8163C21.0594 14.3679 18.5972 14.5127 17.1488 16.1349C15.7004 17.7571 15.8452 20.2193 17.4674 21.6677L52.1126 52.634L17.6123 84.9328C16.048 86.4101 15.9611 88.8723 17.4385 90.4655C18.2206 91.2766 19.2634 91.7111 20.3062 91.7111C21.2622 91.7111 22.2181 91.3635 22.9712 90.6683L57.993 57.9061L67.4943 66.3935C68.2475 67.0598 69.1744 67.3784 70.1014 67.3784C71.0284 67.3784 71.9843 67.0308 72.7085 66.3646L82.4705 57.6164L117.289 90.6973C118.043 91.4215 119.028 91.7691 119.983 91.7691C121.026 91.7691 122.04 91.3635 122.822 90.5524C124.3 88.9882 124.242 86.497 122.677 85.0196L88.293 52.3733Z" fill="white" fill-opacity="0.4"/>
</svg>
